<?xml version="1.0" encoding="UTF-8" standalone="no"?>
<svg
   width="5.1675997in"
   height="1.7164453in"
   viewBox="0 0 372.06742 123.58414"
   version="1.1"
   id="svg10"
   sodipodi:docname="SKA_Logo_Text_Color_inverted.svg"
   inkscape:version="1.2.2 (732a01da63, 2022-12-09)"
   xmlns:inkscape="http://www.inkscape.org/namespaces/inkscape"
   xmlns:sodipodi="http://sodipodi.sourceforge.net/DTD/sodipodi-0.dtd"
   xmlns="http://www.w3.org/2000/svg"
   xmlns:svg="http://www.w3.org/2000/svg">
  <defs
     id="defs14" />
  <sodipodi:namedview
     id="namedview12"
     pagecolor="#505050"
     bordercolor="#eeeeee"
     borderopacity="1"
     inkscape:showpageshadow="0"
     inkscape:pageopacity="0"
     inkscape:pagecheckerboard="0"
     inkscape:deskcolor="#505050"
     inkscape:document-units="in"
     showgrid="false"
     inkscape:zoom="3.0759898"
     inkscape:cx="315.99584"
     inkscape:cy="135.56612"
     inkscape:window-width="2560"
     inkscape:window-height="1369"
     inkscape:window-x="1432"
     inkscape:window-y="839"
     inkscape:window-maximized="1"
     inkscape:current-layer="svg10" />
  <path
     style="fill:#ffffff;stroke-width:0.243824"
     d="M 18.223005,87.376147 C 17.57391,87.265072 16.312124,86.950597 15.419031,86.677304 10.337302,85.122283 6.1473701,80.380488 5.0406567,74.931982 4.8344756,73.916924 4.5912677,71.268432 4.5001944,69.046436 L 4.3346063,65.006438 7.8457942,64.834441 c 4.5404978,-0.22242 8.9336928,0.16257 10.4601758,0.916643 1.476796,0.72954 1.771501,1.445708 1.904057,4.627128 l 0.10926,2.622166 27.094066,-0.06202 27.094074,-0.06203 0.06352,-10.534994 0.06352,-10.535001 L 46.165435,51.723885 17.696385,51.64143 15.648771,51.099 C 8.8052863,49.286106 5.5718783,44.762411 4.6622207,35.728273 4.3496783,32.624299 4.3414635,22.95281 4.6471757,18.015902 5.0180554,12.026638 6.1713184,9.0384791 9.213951,6.1831599 c 2.83115,-2.6568467 5.758987,-3.96997 10.676853,-4.788528 2.476644,-0.41222272 4.58689,-0.44641524 27.552122,-0.44641524 19.187951,0 25.343565,0.07245 26.942566,0.31713774 6.261784,0.958178 10.224809,3.0813243 12.922943,6.9233367 2.211812,3.1495069 2.925624,6.0283539 2.925624,11.7992549 v 3.757825 h -7.795677 -7.795677 l -0.06765,-3.474497 -0.06765,-3.47449 -27.125432,-0.06202 -27.125431,-0.06203 v 10.119764 10.119756 h 26.924919 c 17.940933,0 27.556359,0.08783 28.81735,0.263212 7.347514,1.021951 12.206767,5.517064 13.816771,12.781381 0.509625,2.299441 0.538088,2.955332 0.499958,11.521979 -0.05318,11.942003 -0.391763,14.460572 -2.482825,18.467652 -1.756501,3.365957 -4.978233,5.701481 -9.667948,7.008581 l -1.950594,0.543661 -28.40551,0.03967 C 32.185636,87.56022 18.872078,87.48717 18.222983,87.37611 Z"
     id="path1014" />
  <path
     style="fill:#ffffff;stroke-width:0.243824"
     d="m 215.79738,87.623032 c -2.70691,-0.238875 -4.61139,-0.884063 -6.20786,-2.103053 -0.62766,-0.479258 -2.41706,-2.477777 -3.97646,-4.441166 -1.5594,-1.963388 -7.48581,-9.00098 -13.16979,-15.639092 -11.17672,-13.052865 -10.70914,-12.604763 -13.89938,-13.32027 -2.01038,-0.450893 -9.98401,-0.710033 -14.25948,-0.463433 l -3.09752,0.178657 v 17.911061 17.911061 l -6.52229,-0.0755 c -8.19267,-0.09484 -8.06573,-0.04485 -8.86704,-3.489039 -0.37127,-1.595784 -0.31346,-78.9960113 0.0601,-80.4281147 0.55443,-2.1256138 2.2262,-2.71818164 7.6488,-2.71116914 3.89818,0.00525 5.99695,0.39984024 6.74964,1.26967574 0.89359,1.0326832 0.93082,1.7672036 0.93082,18.3633791 v 16.273397 l 4.57171,0.18144 c 8.2448,0.327233 12.81433,-0.13086 15.79357,-1.583288 1.39286,-0.679036 1.99251,-1.331033 11.58165,-12.59259 5.562,-6.532069 11.02661,-13.0383309 12.14358,-14.4583743 5.09115,-6.4725339 6.43567,-7.2089819 13.69581,-7.50175207 5.26008,-0.21211513 7.96178,0.35532027 9.09773,1.91079867 1.09481,1.4991459 -0.17313,4.06342 -4.50189,9.1046677 -4.44211,5.173241 -21.07062,25.067431 -22.68263,27.13729 -3.4109,4.379657 -3.62096,5.808363 -1.34462,9.145573 0.74938,1.098638 2.77099,3.643329 4.49246,5.654883 6.71064,7.84145 20.92158,24.95721 22.06631,26.576821 3.04532,4.308678 3.10729,5.954734 0.26108,6.93473 -1.13738,0.39162 -7.31805,0.539872 -10.56427,0.253402 z"
     id="path1016" />
  <path
     style="fill:#ffffff;stroke-width:0.243824"
     d="m 280.48593,52.456088 c 0.0967,-38.814684 0.0213,-36.920737 1.63725,-41.101907 2.19946,-5.6908989 6.71522,-8.967231 13.89844,-10.0837866 2.96212,-0.46042533 50.81715,-0.46864533 53.93879,-0.00923 8.95483,1.3178033 13.54393,4.8142379 15.59041,11.8783126 l 0.5651,1.950593 0.0697,36.268838 0.0697,36.268829 -0.55476,-0.01132 c -1.51157,-0.0309 -13.62072,-0.90615 -13.69063,-0.989603 -0.0443,-0.05295 -0.426,-1.390628 -0.84807,-2.972604 l -0.76742,-2.876334 V 69.695269 58.612662 H 323.32991 296.26544 V 68.937146 79.26163 l -0.73213,3.614784 c -0.40268,1.988132 -0.78333,3.66598 -0.8459,3.728553 -0.10331,0.103312 -12.00062,0.988523 -13.60933,1.01259 l -0.67981,0.0102 z M 350.3944,30.32905 V 16.674901 H 323.32992 296.26545 V 30.32905 43.983198 h 27.06447 27.06448 z"
     id="path1018" />
  <path
     style="fill:#ffffff;stroke-width:0.243824"
     d="m 354.41749,122.75027 c -4.57621,-0.20199 -5.46376,-0.43268 -6.52726,-1.69658 -1.18181,-1.40451 -1.27511,-2.19105 -1.27511,-10.75034 0,-8.63522 0.062,-9.11231 1.37821,-10.611438 1.37546,-1.566548 2.25342,-1.701676 11.05682,-1.701676 h 7.80237 l 1.38995,0.682561 c 1.1892,0.583972 1.47834,0.865703 2.00195,1.950593 0.62853,1.30228 1.10603,3.82842 0.72357,3.8279 -0.11785,-1.7e-4 -1.99498,-0.38419 -4.17139,-0.85339 -3.93929,-0.84925 -3.98511,-0.85309 -10.17965,-0.85309 h -6.22255 v 8.04619 8.0462 h 8.53384 8.53384 v -2.56015 -2.56016 h -2.92589 -2.92589 v -2.43824 -2.43824 h 4.87648 4.87649 v 3.35898 c 0,4.0371 -0.36438,7.23026 -0.93731,8.21404 -0.23154,0.39757 -0.76203,0.92203 -1.17887,1.16548 -1.85508,1.08342 -7.22039,1.50721 -14.8296,1.17136 z"
     id="path1020" />
  <path
     style="fill:#ffffff;stroke-width:0.243824"
     d="M 304.55547,110.30122 V 97.864064 l 1.40199,0.14565 c 2.22135,0.23076 3.5248,0.755528 5.02285,2.022176 3.06851,2.59452 9.46047,10.45708 11.67048,14.35552 0.71014,1.25267 1.00137,1.45545 1.57032,1.09339 0.18724,-0.11915 0.4122,-2.58976 0.67125,-7.37194 0.21429,-3.95601 0.45288,-7.87848 0.5302,-8.716633 l 0.14059,-1.523903 h 1.80927 1.80928 v 12.313116 c 0,9.3711 -0.0694,12.31312 -0.29075,12.31312 -0.15992,0 -1.28456,-0.18164 -2.4992,-0.40366 l -2.20844,-0.40366 -7.80238,-8.35401 c -4.2913,-4.59471 -7.88466,-8.36301 -7.98524,-8.37401 -0.10057,-0.011 -0.18286,3.98482 -0.18286,8.87958 v 8.89958 h -1.82868 -1.82868 z"
     id="path1022" />
  <path
     style="fill:#ffffff;stroke-width:0.243824"
     d="m 283.59692,114.14359 c 0.008,-6.82051 0.0985,-9.22399 0.43724,-11.6426 l 0.42692,-3.047803 1.45239,-0.534113 c 2.56477,-0.943178 2.30578,-2.249251 2.30578,11.628106 v 12.1912 h -2.31633 -2.31633 z"
     id="path1024" />
  <path
     style="fill:#ffffff;stroke-width:0.243824"
     d="m 253.59623,112.7416 v -9.99679 h -4.9984 -4.99839 v -2.43824 -2.438246 h 12.31312 12.31312 v 2.438246 2.43824 h -4.9984 -4.9984 v 9.99679 9.99678 h -2.31632 -2.31633 z"
     id="path1026" />
  <path
     style="fill:#ffffff;stroke-width:0.243824"
     d="M 209.46406,110.30335 V 97.868324 h 2.43825 2.43823 v 10.484436 10.48444 h 10.48444 10.48444 v 1.95059 1.95059 h -12.92268 -12.92268 z"
     id="path1028" />
  <path
     style="fill:#ffffff;stroke-width:0.243824"
     d="m 171.98745,122.49147 c -2.05543,-0.42402 -3.30492,-1.47258 -3.90696,-3.27869 -0.3507,-1.05209 -0.42217,-2.67646 -0.49664,-11.28671 l -0.087,-10.057746 h 2.33106 2.33106 v 10.484436 10.48444 h 8.1681 8.16811 V 108.35276 97.868324 h 2.40241 2.4024 l 0.1345,5.303176 c 0.23266,9.17323 -0.37459,14.9934 -1.80597,17.30942 -0.35481,0.57409 -0.9804,1.06876 -1.89262,1.49654 l -1.36263,0.63901 -7.68046,0.0432 c -4.22426,0.0238 -8.14167,-0.0519 -8.70537,-0.16822 z"
     id="path1030" />
  <path
     style="fill:#ffffff;stroke-width:0.243824"
     d="m 131.44035,122.64856 c -1.88217,-0.45267 -2.49907,-0.7397 -3.52402,-1.63962 -0.89026,-0.78166 -2.08393,-2.78912 -2.08393,-3.50467 0,-0.20561 0.0274,-0.37344 0.061,-0.37294 0.0335,4.9e-4 1.98107,0.38258 4.32788,0.84907 4.17232,0.82938 4.40071,0.84828 10.30156,0.85249 l 6.03465,0.004 v -3.0478 -3.0478 l -6.40038,-0.005 c -10.25496,-0.008 -12.16529,-0.4983 -13.71065,-3.52001 -0.67526,-1.32037 -0.73578,-1.64142 -0.73415,-3.89448 0.001,-2.05531 0.0956,-2.66376 0.57775,-3.73351 0.67767,-1.5037 2.05946,-2.838306 3.36535,-3.250461 0.57982,-0.182993 3.29952,-0.336263 7.20239,-0.405878 10.12267,-0.18057 12.36668,0.369893 13.59479,3.334799 0.41001,0.98987 0.17546,1.76011 -0.69201,2.27254 -0.94068,0.55568 -2.32042,0.53228 -5.15368,-0.0874 -1.86334,-0.40755 -3.49649,-0.5316 -8.35097,-0.63432 l -6.03465,-0.12768 v 2.56438 2.56439 l 7.74141,0.10567 c 8.6314,0.11782 9.61909,0.27071 11.06052,1.71214 2.39472,2.39472 3.03166,7.77308 1.25856,10.62736 -1.30248,2.09669 -2.56513,2.38169 -11.40474,2.57414 -4.60286,0.1002 -6.424,0.0537 -7.43663,-0.18981 z"
     id="path1032" />
  <path
     style="fill:#ffffff;stroke-width:0.243824"
     d="m 83.448183,111.94917 c 0.0799,-10.67812 0.08649,-10.80091 0.640118,-11.92472 1.449496,-2.942359 4.501427,-2.346117 8.312982,1.62409 3.436217,3.57924 8.012477,9.61292 10.170387,13.40939 l 0.69295,1.21912 0.16379,-1.34103 c 0.0901,-0.73758 0.35974,-4.87954 0.59925,-9.20437 l 0.43548,-7.863326 h 2.39461 2.39461 v 12.382986 12.38299 l -2.38821,-0.25274 -2.38821,-0.25273 -8.035274,-8.6343 -8.035265,-8.63429 -0.06397,8.93908 -0.06397,8.93906 h -2.455022 -2.455014 z"
     id="path1034" />
  <path
     style="fill:#ffffff;stroke-width:0.243824"
     d="m 46.631755,122.37388 c -2.236344,-0.49868 -2.984004,-1.01004 -3.748697,-2.56391 -0.938956,-1.90798 -1.432448,-4.68887 -1.578856,-8.89705 -0.15822,-4.54733 0.277958,-7.83013 1.307963,-9.84413 0.587896,-1.149545 0.904036,-1.465745 2.032029,-2.032393 1.736979,-0.872581 4.47355,-1.210936 9.991566,-1.235386 6.125464,-0.02715 9.757514,0.717886 11.062927,2.269279 2.162461,2.56993 2.337646,17.7204 0.241928,20.92318 -0.205643,0.31427 -0.885818,0.80802 -1.511499,1.09721 -1.079003,0.49871 -1.526933,0.5284 -8.69615,0.5765 -5.768554,0.0387 -7.923875,-0.0307 -9.101211,-0.2933 z M 62.438135,110.791 v -8.04619 h -8.0462 -8.046192 v 8.04619 8.0462 h 8.046192 8.0462 z"
     id="path1036" />
  <path
     style="fill:#ffffff;stroke-width:0.243824"
     d="m 5.7490276,122.56831 c -1.8590314,-0.24657 -3.258008,-0.82446 -3.9762932,-1.64255 -1.19030993,-1.35569 -1.31951626,-2.52572 -1.22688821,-11.11005 0.0778478,-7.21454 0.11414632,-7.74702 0.59835941,-8.77767 0.6416479,-1.365748 1.3823513,-2.057736 2.7830837,-2.600039 0.9559581,-0.37011 2.3442802,-0.433507 11.2699217,-0.514627 l 10.179659,-0.09253 v 2.456986 2.45698 H 14.770521 4.1641709 v 8.04619 8.0462 H 14.770521 25.37687 v 1.95059 1.95059 l -9.448184,-0.0365 c -5.196503,-0.0201 -9.7773484,-0.0802 -10.1796584,-0.13355 z"
     id="path1038" />
  <path
     style="fill:#008b8b;stroke-width:0.243824"
     d="M 38.040485,0.89300163 C 31.472333,1.0362142 24.850647,0.60067395 18.321683,1.4606545 12.365502,2.7153677 6.3882928,6.8466853 5.0966075,13.108499 4.1629057,19.152813 4.5044649,25.311412 4.3864883,31.407198 c 0.00867,5.419683 0.5601476,11.415202 4.2212816,15.711429 2.4954731,2.76622 6.2353581,4.170693 9.8191531,4.689296 18.655976,0.08677 37.313153,0.05115 55.968117,0.274808 0.04718,6.871819 -0.04845,13.743765 -0.07906,20.615517 -17.694206,-0.07185 -35.392882,0.161588 -53.084215,-0.168945 -1.210253,0.248385 -0.566745,-1.334806 -0.839955,-2.044516 -0.290911,-1.677159 0.0216,-4.07932 -1.980602,-4.783623 -3.937262,-1.441359 -8.260712,-0.970156 -12.3742504,-0.969008 -0.8187373,0.06233 -2.3614125,-0.02752 -1.8685114,1.265273 0.3232817,5.503481 0.2116411,11.771857 4.2869313,16.045667 2.6464315,3.195782 6.6125465,5.198959 10.7039715,5.605076 19.038604,0.003 38.079721,0.0411 57.11675,0.02287 4.66918,-1.131758 9.471876,-3.463517 11.77356,-7.92047 2.645021,-4.852527 2.14054,-10.603171 2.442528,-15.932854 C 90.374145,57.727504 91.277858,51.214567 88.405228,45.574602 85.790419,40.193123 79.790086,36.712124 73.825827,37.008381 56.071861,36.662009 38.313373,36.641946 20.556579,36.612756 c 0,-6.545944 0,-13.091888 0,-19.63784 17.924404,0 35.848807,0 53.773218,0 0.108983,2.273379 -0.223612,4.616418 0.310013,6.84851 1.815151,0.518723 3.957055,0.0744 5.897974,0.22239 3.318077,-0.07734 6.708169,0.156007 9.981073,-0.116198 -0.18954,-4.550388 0.12378,-9.430281 -1.843921,-13.686533 C 86.577965,5.8255522 82.261652,2.8471653 77.568494,1.7587422 72.981581,0.47243137 68.144656,1.1192393 63.446293,0.90722913 c -8.468578,-0.02175 -16.937208,-0.01335 -25.405808,-0.01425 z"
     id="path1146" />
  <path
     style="fill:#008b8b;stroke-width:0.121912"
     d="m 219.79873,0.66965899 c -2.78438,0.0977476 -5.71069,0.11953507 -8.28302,1.32023331 -3.19461,1.7562236 -5.19059,4.947288 -7.52713,7.6279322 -6.42457,7.7078595 -12.88346,15.3909545 -19.50835,22.9247845 -1.14807,1.34907 -2.46625,2.684146 -4.2288,3.189301 -2.96309,1.029121 -6.11839,1.110406 -9.22538,1.058356 -3.17125,-0.02332 -6.34715,0.0558 -9.507,-0.179415 -0.0975,-10.338306 -0.0245,-20.679688 -0.28025,-31.0156615 -0.0639,-1.3632758 -0.008,-3.0777844 -1.32984,-3.8985624 -1.82082,-1.03944812 -4.02843,-0.837083 -6.04893,-0.90693054 -2.03678,0.0977401 -4.16072,-0.13546508 -6.12275,0.52619284 -1.33663,0.4738803 -2.26673,1.8268361 -2.14552,3.2540795 -0.27077,7.7765901 -0.14491,15.5610621 -0.20462,23.3410791 -0.005,18.101614 -0.0667,36.204135 0.0953,54.305104 0.14398,1.568295 0.0641,3.408272 1.20501,4.640327 1.18529,0.969466 2.85803,0.715951 4.28144,0.878146 3.40315,0.128235 6.80941,0.126832 10.21418,0.179775 0.62979,-0.4095 0.15728,-1.455023 0.30383,-2.128704 0,-11.236619 0,-22.473246 0,-33.709865 3.6429,-0.304928 7.31455,-0.138391 10.97064,-0.136876 2.72095,0.06915 5.54534,0.01118 8.1236,1.042876 1.93861,1.145828 3.28051,3.017139 4.81898,4.633698 7.42753,8.511665 14.69996,17.154348 21.92497,25.837148 1.40776,1.656541 3.05542,3.289757 5.24606,3.798828 3.86515,1.057095 7.92433,0.722948 11.88023,0.606697 1.55074,-0.08076 3.53102,-0.451777 4.15239,-2.084881 0.21336,-1.746151 -0.94826,-3.280434 -1.8141,-4.688898 -2.55111,-3.579197 -5.49875,-6.855259 -8.25627,-10.273888 -5.6827,-6.909012 -11.52458,-13.686121 -17.19841,-20.602243 -1.15452,-1.519914 -2.48428,-3.043922 -2.95017,-4.925966 -0.13168,-1.128233 0.0436,-2.281674 0.70721,-3.225377 2.10804,-3.444024 4.95192,-6.351124 7.45443,-9.499648 6.11952,-7.388157 12.34191,-14.689494 18.46067,-22.076578 1.42488,-1.8866492 3.18814,-3.7531453 3.62879,-6.1572718 0.19146,-1.758631 -1.58236,-2.9426718 -3.11186,-3.2466245 -1.87465,-0.40789521 -3.81615,-0.39903771 -5.72534,-0.40716771 z"
     id="path1148" />
  <path
     style="fill:#008b8b;stroke-width:0.344819"
     d="m 305.91691,0.5336614 c -5.95629,-0.014025 -12.31744,-0.34956021 -17.65178,2.7989642 -5.91628,3.2757695 -8.3173,10.4534394 -8.06756,16.8934524 -0.35411,22.406294 -0.18961,44.81675 -0.23505,67.224964 0.90753,1.486644 3.26053,0.412928 4.7896,0.600308 3.37685,-0.355598 6.87409,-0.368993 10.13933,-1.329008 1.2263,-2.216064 1.33693,-5.001753 1.80828,-7.491072 0.51401,-6.649789 0.18018,-13.331919 0.28017,-19.994803 17.66031,0 35.32063,0 52.98095,0 0.18842,7.795708 -0.4058,15.643128 0.40611,23.407305 0.5583,1.456988 0.381,3.738392 1.91873,4.476595 4.68534,0.414458 9.46473,1.158518 14.13164,0.945286 1.00818,-1.643889 0.15765,-4.155918 0.42501,-6.134374 -0.19158,-21.575863 0.0647,-43.159782 -0.45835,-64.73032 C 366.60936,11.504541 363.50494,5.7153171 358.29847,3.2174631 354.30543,0.96186667 349.68152,0.59051144 345.18946,0.71030901 332.0995,0.57753643 319.0076,0.55544892 305.91691,0.5336614 Z m 17.55346,16.6348456 c 8.83016,0 17.66032,0 26.49048,0 0,8.69501 0,17.390028 0,26.085046 -17.66032,0 -35.32064,0 -52.98095,0 0,-8.695018 0,-17.390036 0,-26.085046 8.83016,0 17.66031,0 26.49047,0 z"
     id="path1156" />
  <path
     style="fill:#008b8b;stroke-width:0.243824"
     d="m 16.528244,97.263531 c -4.228802,0.212085 -8.5459707,-0.20988 -12.7174276,0.621465 -2.6557448,0.854101 -4.00009816,3.781144 -3.71854874,6.426824 -0.06480754,4.93429 -0.23621864,9.8932 0.16500311,14.81397 0.44978802,2.27 2.81283693,3.83566 4.97879933,4.007 6.7704509,0.0629 13.5947809,0.23768 20.3290869,0.27384 1.165981,-0.75235 0.291465,-2.63012 0.561758,-3.83796 0.41733,-1.91239 -1.781821,-1.47696 -2.944464,-1.48151 -6.089411,0 -12.178823,0 -18.2682354,0 0,-4.86411 0,-9.7282 0,-14.5923 6.8896704,-0.0628 13.8291404,0.12477 20.6879164,-0.0933 1.098458,-0.79748 0.266925,-2.6069 0.524783,-3.81169 0.33333,-1.432171 -0.252068,-2.994002 -1.979064,-2.425682 -2.539869,0.03315 -5.079738,0.06622 -7.619607,0.09935 z"
     id="path1158" />
  <path
     style="fill:#008b8b;stroke-width:0.243824"
     d="m 53.527124,97.174476 c -3.306384,0.228682 -6.966064,-0.03562 -9.877258,1.804396 -2.843927,2.260718 -2.679729,6.338968 -2.875772,9.627648 -0.0045,4.13381 -0.142642,8.68187 2.158584,12.30033 2.046909,2.74824 5.826371,2.13319 8.806213,2.24928 4.102202,-0.095 8.254302,0.24843 12.32505,-0.30774 3.027182,-0.8425 3.589045,-4.35732 3.716312,-7.03553 0.132795,-4.61086 0.441098,-9.33524 -0.631365,-13.86048 -0.425078,-2.501795 -2.841609,-3.850431 -5.161263,-4.181676 -2.783282,-0.520381 -5.635061,-0.621586 -8.460501,-0.596228 z m 0.864811,6.320384 c 2.432049,0 4.864098,0 7.296154,0 0,4.8641 0,9.72819 0,14.5923 -4.864105,0 -9.728203,0 -14.592301,0 0,-4.86411 0,-9.7282 0,-14.5923 2.432049,0 4.864098,0 7.296147,0 z"
     id="path1160" />
  <path
     style="fill:#008b8b;stroke-width:0.243824"
     d="m 104.1311,97.337818 c -0.66904,2.972352 -0.50441,6.146362 -0.80142,9.200812 -0.15424,2.60621 -0.3018,5.19869 -0.5158,7.79973 -3.296907,-5.19356 -6.967762,-10.24389 -11.46772,-14.462773 -1.721281,-1.535978 -4.595778,-3.238922 -6.729559,-1.471988 -2.188539,1.913401 -1.447508,5.139841 -1.707241,7.698441 -0.0495,5.61203 -0.278573,11.26984 -0.14052,16.85325 0.76191,1.08576 2.514481,0.31156 3.70072,0.52926 0.915533,0.0392 2.589871,0.16198 2.390776,-1.22274 0.13206,-5.25234 0.18378,-10.50636 0.267488,-15.75963 4.8703,5.05962 9.399831,10.46448 14.511816,15.28234 1.61248,1.44448 4.01527,1.42458 6.00754,1.32769 0.80526,-1.24559 0.13744,-3.04504 0.35523,-4.50502 -0.0626,-6.98178 0.12486,-14.0133 -0.0933,-20.964129 -0.76256,-1.080413 -2.51208,-0.285885 -3.68359,-0.524775 -0.70166,0.0594 -1.45979,-0.168023 -2.09441,0.219532 z"
     id="path1162" />
  <path
     style="fill:#008b8b;stroke-width:0.243824"
     d="m 138.77603,97.388301 c -3.13301,0.1668 -6.34569,-0.20559 -9.42819,0.456218 -3.01259,1.1868 -4.50517,4.597121 -4.2631,7.693791 -0.18996,3.35457 2.03067,7.06697 5.63509,7.28377 5.00911,0.5302 10.05361,0.64538 15.08757,0.66623 0,1.53294 0,3.06589 0,4.59885 -5.9849,-0.0245 -12.05318,0.31662 -17.91391,-1.17239 -0.89296,-0.36052 -2.67575,-0.52888 -2.56541,0.90903 0.65236,2.41643 2.67297,4.51216 5.1184,5.17079 3.56302,0.84575 7.29049,0.25741 10.91652,0.33539 2.83501,-0.25202 6.15648,0.22517 8.52798,-1.66689 3.01209,-3.44681 2.47116,-9.19444 -0.57098,-12.45789 -1.97083,-2.1571 -5.1447,-1.41317 -7.73095,-1.75535 -3.53749,-0.15749 -7.07736,-0.25983 -10.61777,-0.3224 0.36041,-1.15147 -0.79757,-3.87798 0.73098,-3.81774 5.08551,0.20272 10.20137,0.18907 15.22187,1.11472 1.74301,0.34999 4.41607,-0.38182 4.25645,-2.5811 -0.42235,-2.728798 -3.27824,-4.249469 -5.85083,-4.280257 -2.17748,-0.204645 -4.36918,-0.179925 -6.55372,-0.174772 z"
     id="path1164" />
  <path
     style="fill:#008b8b;stroke-width:0.243824"
     d="m 167.07486,97.337818 c -0.51834,2.120747 -0.0208,4.438702 -0.15807,6.633412 0.14722,4.81872 -0.0986,9.67308 0.42618,14.4688 0.32576,2.85421 3.09516,4.86369 5.88845,4.69123 5.13697,0.12615 10.30574,0.18761 15.42664,0.0252 2.01173,-0.82414 3.93878,-2.28918 4.35883,-4.54979 1.25485,-5.606 1.15283,-11.4256 1.02615,-17.1398 -0.17332,-1.38022 0.0683,-2.885536 -0.49612,-4.164804 -1.68671,-0.360503 -3.56637,-0.189848 -5.27699,-0.09052 -1.10053,0.801496 -0.26468,2.617862 -0.52479,3.826464 0,5.68303 0,11.36607 0,17.04911 -4.94537,0 -9.89074,0 -14.83611,0 -0.0622,-6.80852 0.1243,-13.66649 -0.0933,-20.444099 -0.7575,-1.07778 -2.49839,-0.28854 -3.66501,-0.524775 -0.69587,0.0591 -1.447,-0.167805 -2.07585,0.219533 z"
     id="path1166" />
  <path
     style="fill:#008b8b;stroke-width:0.243824"
     d="m 208.93403,97.337818 c -0.52763,2.199362 -0.0636,4.596532 -0.22001,6.869932 0.0621,6.2458 -0.1243,12.54103 0.0933,18.7559 0.8015,1.10053 2.61787,0.26468 3.82645,0.52478 7.62747,-0.0622 15.30439,0.12433 22.90092,-0.0933 1.10052,-0.8015 0.26467,-2.61786 0.52477,-3.82646 0.41734,-1.91239 -1.78181,-1.47696 -2.94446,-1.48151 -6.00814,0 -12.01627,0 -18.02441,0 -0.0622,-6.80852 0.1243,-13.66649 -0.0933,-20.444099 -0.8015,-1.100528 -2.61786,-0.264675 -3.82646,-0.524775 -0.74549,0.0639 -1.55932,-0.173018 -2.2368,0.219532 z"
     id="path1168" />
  <path
     style="fill:#008b8b;stroke-width:0.243824"
     d="m 243.06941,97.337818 c -0.52384,1.712469 -0.0668,3.620582 -0.22001,5.406992 0.53472,1.42341 2.51001,0.47663 3.67593,0.75005 2.10695,0 4.2139,0 6.32085,0 0.0622,6.48341 -0.1243,13.01629 0.0933,19.46879 0.76828,1.08338 2.52754,0.28286 3.70454,0.52478 1.41738,0.35844 2.85222,-0.32227 2.3349,-1.96916 0,-6.00815 0,-12.01628 0,-18.02441 3.15079,-0.064 6.35214,0.12618 9.47201,-0.0933 1.10053,-0.8015 0.26467,-2.61786 0.52477,-3.826458 0.32535,-1.429006 -0.23326,-3.002244 -1.96916,-2.456806 -7.87118,0.06262 -15.7921,-0.124718 -23.63238,0.0933 l -0.22526,0.09331 z"
     id="path1170" />
  <path
     style="fill:#008b8b;stroke-width:0.243824"
     d="m 287.43873,97.919759 c -1.37789,0.316162 -3.59135,0.487785 -3.71594,2.306331 -0.96116,7.45633 -0.59689,15.00782 -0.76433,22.50706 0.54853,1.43353 2.54157,0.49038 3.73689,0.75528 1.41308,0.37562 2.77764,-0.36935 2.27107,-1.97107 -0.12816,-7.50113 0.22568,-15.03275 -0.41572,-22.513251 -0.0565,-0.583935 -0.45507,-1.175258 -1.11197,-1.08435 z"
     id="path1172" />
  <path
     style="fill:#008b8b;stroke-width:0.243824"
     d="m 326.97299,97.121143 c -1.23942,-0.24579 -2.34684,0.706291 -2.14298,1.988214 -0.46378,5.190443 -0.48918,10.420303 -1.11007,15.594263 -3.32812,-4.76785 -6.72413,-9.53885 -10.92138,-13.60206 -1.53652,-1.763378 -3.45435,-3.276714 -5.85403,-3.547217 -1.09254,-0.190672 -3.34572,-0.706598 -3.13911,1.045456 0,8.046191 0,16.092391 0,24.138581 0.56879,1.4417 2.59325,0.46695 3.79785,0.75005 1.9327,0.30916 1.261,-2.03897 1.3596,-3.18828 0.0133,-4.58299 -0.0445,-9.20374 0.0914,-13.76083 5.05141,5.03197 9.70919,10.47341 14.77374,15.48379 1.67687,0.524 3.50611,1.11364 5.26888,0.88862 1.00838,-1.10793 0.29213,-2.91982 0.56766,-4.30598 0.0797,-6.97827 0.35005,-14.0029 0.24009,-20.953104 -0.46502,-0.990946 -2.02629,-0.372038 -2.93169,-0.531503 z"
     id="path1174" />
  <path
     style="fill:#008b8b;stroke-width:0.243824"
     d="m 358.70442,97.424968 c -3.09783,0.168248 -6.28815,-0.142995 -9.32723,0.526223 -1.92193,0.948106 -3.40413,2.947469 -3.16416,5.168979 -0.14243,5.20486 -0.44925,10.45191 0.0825,15.63941 0.21449,2.315 2.14963,4.11854 4.44122,4.31692 5.05341,0.5775 10.17854,0.29558 15.24567,0.0181 2.2921,-0.22214 5.20062,-1.25924 5.42985,-3.93832 0.57754,-3.46215 0.66383,-7.03714 0.65444,-10.51421 -0.76629,-1.14868 -2.62686,-0.28387 -3.83511,-0.5517 -2.37018,0.14163 -4.85475,-0.29186 -7.15138,0.21954 -0.52384,1.71247 -0.0669,3.62058 -0.22001,5.40699 0.53473,1.42342 2.51001,0.47664 3.67593,0.75004 1.97067,-0.47946 2.53653,0.44588 2.17585,2.29777 0.64878,2.14617 -1.92069,1.07409 -3.16971,1.32246 -4.13263,0 -8.26526,0 -12.39789,0 0,-4.86411 0,-9.72821 0,-14.59231 5.74849,0.11218 11.59763,-0.46554 17.22223,1.04822 1.01096,0.10231 3.04513,1.10315 3.24138,-0.57867 -0.039,-2.3569 -1.03196,-4.990016 -3.37449,-5.939876 -2.05993,-1.335271 -4.63449,-0.406868 -6.93854,-0.633061 -0.86354,0.01118 -1.72707,0.02235 -2.5906,0.03353 z"
     id="path1176" />
  <path
     style="fill:#008b8b;stroke-width:0.172409"
     d="M 49.150077,0.21241371 C 39.214663,0.28733875 29.2698,0.1926137 19.343071,0.64916148 13.698935,1.437352 8.2224017,4.785234 5.5328498,9.8975071 3.7764079,13.697317 3.9915186,18.015992 3.8109064,22.10294 c 0.011115,5.312103 -0.1539195,10.645701 0.3254312,15.941612 0.6620097,4.139372 2.2824959,8.42876 5.7380091,11.034562 3.1936583,2.488906 7.3220733,3.566972 11.3345603,3.396039 17.517401,0.04733 35.035064,0.09796 52.551977,0.260588 -0.0222,6.447581 0.07511,12.92208 -0.199342,19.345917 -17.446781,-0.0666 -34.894679,-0.01 -52.340485,-0.224265 -0.397215,-1.782346 -0.08467,-3.79567 -1.015598,-5.444036 -1.474351,-1.944016 -4.180915,-2.004804 -6.395321,-2.283422 -3.203387,-0.189555 -6.4663731,-0.272385 -9.6370961,0.257941 -1.0886437,0.558465 -0.4964305,2.063678 -0.6034339,3.035356 0.258091,4.776866 0.5357119,9.926182 3.5246325,13.904904 2.7149191,3.769352 7.0603725,6.468064 11.7126325,6.888777 19.343315,0.18291 38.688189,0.0558 58.032133,0.07027 4.688516,-1.344939 9.496806,-3.83047 11.824875,-8.340995 2.591049,-4.839551 2.211579,-10.507274 2.411334,-15.814825 -0.024,-4.389108 0.13731,-8.800055 -0.281655,-13.173263 -0.849938,-5.582996 -4.37122,-10.843259 -9.626466,-13.136108 -3.403742,-1.740159 -7.322337,-1.341781 -11.012977,-1.526956 -16.284685,-0.236048 -32.5718,-0.224603 -48.857632,-0.33318 0,-6.092142 0,-12.18429 0,-18.276432 17.138635,0.04087 34.278643,-0.08947 51.416394,0.08584 0.857723,-0.176032 1.091085,0.290476 0.943838,1.094664 0.127117,1.712371 -0.197115,3.552414 0.452355,5.177095 0.946246,1.054531 2.589692,0.495593 3.833072,0.682793 4.079095,-0.02363 8.176948,0.16488 12.24474,-0.158242 1.460551,-0.127283 0.786383,-1.913942 0.931478,-2.876327 C 91.099612,16.617661 90.739275,11.011078 87.295723,6.9640378 83.377653,2.2093799 76.993949,0.2002412 70.987893,0.34649129 63.709776,0.2009312 56.429341,0.20808621 49.150077,0.21244371 Z"
     id="path1178" />
  <path
     style="fill:#008b8b;stroke-width:0.172409"
     d="M 220.31619,2.6857768e-4 C 216.44303,0.06986862 212.14744,0.20805621 209.08127,2.9123779 c -2.63811,2.3632589 -4.66075,5.3236007 -7.00137,7.9680651 -6.41574,7.623222 -12.7416,15.334869 -19.49147,22.666641 -2.43997,2.208534 -5.9152,2.342094 -9.01136,2.562759 -3.81601,0.174615 -7.61354,0.01253 -11.42289,-0.125115 -0.0383,-10.615529 0.0331,-21.237935 -0.3502,-31.8472994 -0.0351,-1.9724112 -1.72737,-3.56717467 -3.65563,-3.72263477 -3.16916,-0.36916522 -6.41071,-0.39096024 -9.57513,0.03405 -1.94219,0.23939265 -3.6815,1.89378117 -3.58054,3.92874997 -0.25718,7.8561202 -0.12265,15.7237592 -0.18592,23.5843942 0.007,18.610857 -0.0797,37.223588 0.14283,55.833124 0.0911,1.814319 0.92504,4.005723 2.9616,4.302498 4.50194,0.474218 9.07602,0.509648 13.57953,0.299108 1.04869,-0.429885 0.39993,-1.876486 0.58333,-2.754257 0.0268,-10.985167 0.0539,-21.970333 0.0812,-32.955508 5.11242,-0.241687 10.25987,-0.200145 15.36802,0.222923 2.03711,0.12459 3.85614,1.202558 5.1734,2.725464 6.4849,7.128432 12.61821,14.565617 18.84705,21.911766 2.46691,2.805519 4.6646,5.874184 7.38607,8.443205 2.32577,2.074442 5.55006,2.424737 8.52619,2.631602 3.05541,0.09635 6.1573,0.07577 9.17004,-0.470423 1.44959,-0.413828 2.96039,-1.740766 2.56157,-3.397682 -0.77366,-3.255624 -3.24039,-5.744111 -5.21597,-8.327443 -7.50972,-9.310025 -15.39058,-18.314951 -22.88271,-27.638109 -1.25507,-1.539533 -2.53925,-3.496607 -1.83662,-5.569016 1.30233,-2.673947 3.45859,-4.82233 5.24704,-7.171167 7.34942,-9.001228 15.0207,-17.736221 22.26009,-26.8264888 1.18918,-1.630216 2.64294,-3.4837071 2.45679,-5.6161609 -0.48417,-2.2169564 -2.87794,-3.26532203 -4.94701,-3.39768212 -1.31048,-0.1638751 -2.63317,-0.21212263 -3.95296,-0.20743512229 z"
     id="path1180" />
</svg>
