<?xml version="1.0" encoding="UTF-8" standalone="no"?>
<svg
   width="6.94444in"
   height="6.94444in"
   viewBox="0 0 500 500"
   version="1.1"
   id="svg10"
   sodipodi:docname="SKA_Logo_Text_Color.svg"
   inkscape:version="1.2.2 (732a01da63, 2022-12-09)"
   xmlns:inkscape="http://www.inkscape.org/namespaces/inkscape"
   xmlns:sodipodi="http://sodipodi.sourceforge.net/DTD/sodipodi-0.dtd"
   xmlns="http://www.w3.org/2000/svg"
   xmlns:svg="http://www.w3.org/2000/svg">
  <defs
     id="defs14" />
  <sodipodi:namedview
     id="namedview12"
     pagecolor="#505050"
     bordercolor="#eeeeee"
     borderopacity="1"
     inkscape:showpageshadow="0"
     inkscape:pageopacity="0"
     inkscape:pagecheckerboard="0"
     inkscape:deskcolor="#505050"
     inkscape:document-units="in"
     showgrid="false"
     inkscape:zoom="3.0759898"
     inkscape:cx="274.38322"
     inkscape:cy="336.80215"
     inkscape:window-width="2560"
     inkscape:window-height="1369"
     inkscape:window-x="1432"
     inkscape:window-y="839"
     inkscape:window-maximized="1"
     inkscape:current-layer="svg10" />
  <path
     id="Selection #1"
     fill="none"
     stroke="black"
     stroke-width="1"
     d="M 0.00,125.00            C 0.00,125.00 500.00,125.00 500.00,125.00              500.00,125.00 500.00,337.00 500.00,337.00              500.00,337.00 0.00,337.00 0.00,337.00              0.00,337.00 0.00,125.00 0.00,125.00 Z            M 155.00,191.00            C 155.00,186.47 155.42,181.15 153.43,177.00              147.89,165.44 134.60,167.00 124.00,167.00              124.00,167.00 106.00,167.00 106.00,167.00              98.13,167.00 83.67,165.92 77.00,169.44              68.89,173.71 68.01,179.79 68.00,188.00              67.98,201.67 65.63,218.74 85.00,219.00              85.00,219.00 138.00,219.00 138.00,219.00              138.00,219.00 138.00,239.00 138.00,239.00              138.00,239.00 85.00,239.00 85.00,239.00              84.98,237.17 85.16,234.09 83.98,232.60              82.02,230.12 71.29,231.00 68.00,231.00              68.00,238.26 67.45,245.01 73.33,250.47              77.35,254.20 81.76,254.93 87.00,255.00              87.00,255.00 135.00,255.00 135.00,255.00              148.86,254.93 154.98,248.81 155.00,235.00              155.02,222.99 157.75,208.25 143.00,203.80              140.55,203.06 138.52,203.03 136.00,203.00              136.00,203.00 85.00,203.00 85.00,203.00              85.00,203.00 85.00,184.00 85.00,184.00              85.00,184.00 138.00,184.00 138.00,184.00              138.00,184.00 138.00,191.00 138.00,191.00              138.00,191.00 155.00,191.00 155.00,191.00 Z            M 226.00,203.00            C 226.00,203.00 226.00,175.00 226.00,175.00              225.99,173.18 226.15,170.08 224.98,168.60              223.14,166.28 211.86,166.28 210.02,168.60              208.77,170.19 209.00,174.01 209.00,176.00              209.00,176.00 209.00,236.00 209.00,236.00              209.00,239.48 208.08,251.99 210.60,253.98              212.08,255.15 215.18,254.99 217.00,255.00              217.00,255.00 226.00,255.00 226.00,255.00              226.00,255.00 226.00,219.00 226.00,219.00              230.79,219.00 242.16,218.03 245.83,220.60              245.83,220.60 266.75,245.00 266.75,245.00              271.67,250.96 272.78,254.84 281.00,255.00              284.18,255.05 294.41,256.41 293.12,250.94              292.56,248.57 288.63,244.03 287.00,242.00              287.00,242.00 270.25,222.00 270.25,222.00              268.65,220.08 262.79,213.73 262.64,211.58              262.45,208.90 267.99,203.11 269.75,201.00              269.75,201.00 286.43,181.00 286.43,181.00              288.24,178.82 292.32,174.61 293.00,172.02              294.57,165.99 285.46,166.96 282.00,167.00              273.26,167.12 272.41,170.60 267.08,177.00              267.08,177.00 246.91,200.69 246.91,200.69              242.40,204.32 231.77,203.00 226.00,203.00 Z            M 431.00,255.00            C 431.00,255.00 431.00,186.00 431.00,186.00              430.81,170.94 421.39,167.02 408.00,167.00              408.00,167.00 365.00,167.00 365.00,167.00              350.68,167.17 344.07,173.66 344.00,188.00              344.00,188.00 344.00,255.00 344.00,255.00              344.00,255.00 359.40,253.98 359.40,253.98              359.40,253.98 361.00,246.00 361.00,246.00              361.00,246.00 361.00,226.00 361.00,226.00              361.00,226.00 414.00,226.00 414.00,226.00              414.00,226.00 414.00,248.00 414.00,248.00              414.00,248.00 415.60,253.98 415.60,253.98              415.60,253.98 431.00,255.00 431.00,255.00 Z            M 361.00,184.00            C 361.00,184.00 414.00,184.00 414.00,184.00              414.00,184.00 414.00,210.00 414.00,210.00              414.00,210.00 361.00,210.00 361.00,210.00              361.00,210.00 361.00,184.00 361.00,184.00 Z            M 90.00,264.00            C 90.00,264.00 73.00,264.00 73.00,264.00              70.64,264.04 67.54,263.94 65.74,265.74              63.65,267.82 64.00,272.24 64.00,275.00              63.98,285.93 62.59,289.82 72.00,290.00              72.00,290.00 90.00,290.00 90.00,290.00              90.00,290.00 90.00,285.00 90.00,285.00              90.00,285.00 69.00,285.00 69.00,285.00              69.00,285.00 69.00,270.00 69.00,270.00              69.00,270.00 90.00,270.00 90.00,270.00              90.00,270.00 90.00,264.00 90.00,264.00 Z            M 110.04,264.43            C 108.19,265.24 107.35,265.30 106.17,267.23              103.98,270.81 104.16,285.56 107.43,288.40              110.11,290.73 118.38,290.01 122.00,290.00              124.53,289.99 128.36,290.34 130.33,288.40              132.85,285.76 132.76,269.11 130.33,266.31              127.48,262.84 114.41,263.75 110.04,264.43 Z            M 167.00,281.00            C 164.93,277.14 158.65,269.19 155.41,266.31              153.46,264.59 150.05,263.05 148.02,265.60              146.77,267.17 147.00,271.02 147.00,273.00              147.00,273.00 147.00,290.00 147.00,290.00              147.00,290.00 153.00,290.00 153.00,290.00              153.00,290.00 153.00,273.00 153.00,273.00              153.00,273.00 168.28,289.43 168.28,289.43              168.28,289.43 174.00,290.00 174.00,290.00              174.00,290.00 174.00,264.00 174.00,264.00              174.00,264.00 168.00,264.00 168.00,264.00              168.00,264.00 167.00,281.00 167.00,281.00 Z            M 195.00,270.00            C 198.62,270.00 204.68,269.76 208.00,270.69              209.80,270.83 212.70,272.15 214.38,270.69              216.19,269.60 215.46,266.57 212.85,265.02              210.39,263.56 203.09,263.99 200.00,264.00              197.69,264.00 194.23,263.80 192.23,265.02              188.27,267.44 187.98,275.33 191.43,278.26              194.48,280.86 205.73,280.00 210.00,280.00              210.00,280.00 210.00,284.94 210.00,284.94              210.00,284.94 199.04,284.94 199.04,284.94              199.04,284.94 189.00,283.00 189.00,283.00              190.53,292.35 199.43,290.10 207.00,290.00              209.36,289.96 212.46,290.06 214.26,288.26              217.26,285.27 216.38,277.38 212.77,275.17              210.50,273.78 206.63,274.00 204.00,274.00              204.00,274.00 195.00,274.00 195.00,274.00              195.00,274.00 195.00,270.00 195.00,270.00 Z            M 237.00,264.00            C 237.00,264.00 231.00,264.00 231.00,264.00              231.00,264.00 231.00,281.00 231.00,281.00              231.14,291.24 234.49,290.09 248.00,290.00              250.53,289.98 253.53,290.18 255.57,288.40              259.37,285.10 258.00,269.25 258.00,264.00              258.00,264.00 252.00,264.00 252.00,264.00              252.00,264.00 252.00,285.00 252.00,285.00              252.00,285.00 237.00,285.00 237.00,285.00              237.00,285.00 237.00,264.00 237.00,264.00 Z            M 279.00,264.00            C 279.00,264.00 273.00,264.00 273.00,264.00              273.00,264.00 273.00,290.00 273.00,290.00              273.00,290.00 300.00,290.00 300.00,290.00              300.00,290.00 300.00,285.00 300.00,285.00              300.00,285.00 279.00,285.00 279.00,285.00              279.00,285.00 279.00,264.00 279.00,264.00 Z            M 333.00,264.00            C 333.00,264.00 307.00,264.00 307.00,264.00              307.00,264.00 307.00,270.00 307.00,270.00              307.00,270.00 317.00,270.00 317.00,270.00              317.00,270.00 317.00,290.00 317.00,290.00              317.00,290.00 323.00,290.00 323.00,290.00              323.00,290.00 323.00,270.00 323.00,270.00              323.00,270.00 333.00,270.00 333.00,270.00              333.00,270.00 333.00,264.00 333.00,264.00 Z            M 353.00,264.00            C 353.00,264.00 348.02,265.60 348.02,265.60              348.02,265.60 347.00,273.00 347.00,273.00              347.00,273.00 347.00,290.00 347.00,290.00              347.00,290.00 353.00,290.00 353.00,290.00              353.00,290.00 353.00,264.00 353.00,264.00 Z            M 388.00,282.00            C 386.20,278.17 377.50,266.95 373.91,265.02              371.98,263.98 370.10,264.07 368.00,264.00              368.00,264.00 368.00,290.00 368.00,290.00              368.00,290.00 373.00,290.00 373.00,290.00              373.00,290.00 373.00,273.00 373.00,273.00              373.00,273.00 388.01,288.98 388.01,288.98              388.01,288.98 394.00,290.00 394.00,290.00              394.00,290.00 394.00,264.00 394.00,264.00              394.00,264.00 389.00,264.00 389.00,264.00              389.00,264.00 388.00,282.00 388.00,282.00 Z            M 436.00,272.00            C 435.46,262.84 431.97,263.83 419.00,264.00              416.64,264.04 413.54,263.94 411.74,265.74              409.78,267.69 410.01,271.43 410.00,274.00              409.98,277.37 409.26,286.06 411.60,288.40              413.23,290.04 415.86,289.96 418.00,290.00              421.91,290.07 432.72,291.08 434.98,287.69              436.45,285.47 436.00,277.90 436.00,275.00              436.00,275.00 425.00,275.00 425.00,275.00              425.00,275.00 425.00,281.00 425.00,281.00              425.00,281.00 431.00,281.00 431.00,281.00              431.00,281.00 431.00,285.00 431.00,285.00              431.00,285.00 415.00,285.00 415.00,285.00              415.00,285.00 415.00,270.06 415.00,270.06              415.00,270.06 426.96,270.06 426.96,270.06              426.96,270.06 436.00,272.00 436.00,272.00 Z            M 111.00,270.00            C 111.00,270.00 126.00,270.00 126.00,270.00              126.00,270.00 126.00,285.00 126.00,285.00              126.00,285.00 111.00,285.00 111.00,285.00              111.00,285.00 111.00,270.00 111.00,270.00 Z" />
  <path
     style="fill:#008b8b;stroke-width:0.325099"
     d="M 0.97529581,308.03093 V 167.42578 H 333.38862 665.80194 V 308.03093 448.63607 H 333.38862 0.97529581 Z M 275.52107,387.53421 c 5.06578,-0.23007 6.51171,-0.40667 8.03833,-0.98177 3.52047,-1.3262 5.25061,-4.43459 5.25329,-9.43806 0.003,-5.37992 -1.94407,-9.4478 -5.32674,-11.12953 -2.52154,-1.25361 -5.1798,-1.53552 -14.54813,-1.54288 l -8.20874,-0.006 v -1.82736 -1.82736 l 7.07089,0.17888 c 5.42249,0.13719 7.753,0.33284 9.99679,0.83926 3.55764,0.80295 6.6588,0.87376 7.99543,0.18256 1.21046,-0.62595 2.24464,-2.27204 2.23682,-3.5603 -0.0135,-2.22614 -2.18633,-5.14794 -4.56646,-6.14059 -2.2479,-0.9375 -6.54443,-1.24077 -15.50456,-1.09438 -10.22055,0.16699 -11.31907,0.38663 -13.58276,2.71579 -3.908,4.02104 -4.13097,12.86708 -0.42564,16.88689 2.51992,2.73379 5.95328,3.39957 17.53127,3.39957 h 7.77884 v 2.43824 2.43824 l -6.90835,0.004 c -6.77389,0.004 -7.04595,-0.022 -13.97932,-1.35449 -3.88904,-0.74744 -7.13818,-1.29178 -7.22032,-1.20965 -0.25963,0.25964 0.76931,4.15147 1.45072,5.48714 0.8443,1.65496 2.5915,3.39109 4.27921,4.2521 3.06877,1.56557 6.8317,1.82593 18.63943,1.28965 z m 299.30007,-0.48616 c 2.50947,-0.53145 4.34791,-1.40088 5.44277,-2.57401 1.34627,-1.44249 1.71506,-3.67515 1.90033,-11.50467 l 0.1712,-7.23344 h -8.16937 -8.1694 v 4.87648 4.87648 h 3.90118 3.90118 v 1.78804 1.78804 h -9.75295 -9.75296 v -9.10276 -9.10276 l 7.39599,0.0101 7.396,0.0102 6.50197,1.40608 c 3.57608,0.77334 6.55353,1.36335 6.61653,1.31113 0.063,-0.0522 -0.0515,-1.34312 -0.25452,-2.86865 -0.82506,-6.2 -2.55208,-8.38461 -7.32606,-9.26712 -2.39877,-0.44344 -17.74785,-0.45659 -20.78339,-0.0178 -3.83389,0.55418 -6.06452,2.17621 -7.26547,5.2832 -0.79269,2.05073 -1.00491,20.46385 -0.27591,23.93934 0.68326,3.25748 1.71304,4.73918 4.0361,5.80729 1.658,0.76233 2.39091,0.87188 7.20974,1.07765 6.94522,0.29658 14.54709,0.0753 17.27704,-0.5028 z m -453.88446,-3.7568 v -4.22628 H 106.95744 92.978201 v -9.10276 -9.10276 h 13.979239 13.97924 v -4.87648 -4.87648 l -13.08522,0.006 c -7.19687,0.004 -14.077824,0.14996 -15.291011,0.32539 -3.975676,0.57486 -6.054461,2.0722 -7.295112,5.25464 -0.836303,2.14523 -1.03329,22.171 -0.24477,24.88341 0.695574,2.39269 1.506536,3.50826 3.189806,4.38795 2.495125,1.30397 4.825272,1.48913 19.153437,1.52204 l 13.57287,0.0312 z m 50.7499,3.46125 c 2.88109,-1.08631 4.06448,-3.06022 4.8037,-8.01263 1.1504,-7.70706 0.4209,-19.51303 -1.42646,-23.08544 -1.72832,-3.34219 -6.37028,-4.65567 -16.4157,-4.64496 -15.03227,0.016 -18.01238,1.63959 -19.38078,10.55874 -0.38637,2.51829 -0.46968,4.6927 -0.33408,8.7191 0.3216,9.54906 1.96828,14.3839 5.40544,15.87096 2.64894,1.14605 4.82902,1.32092 15.44726,1.23906 8.95474,-0.069 10.61165,-0.15881 11.90062,-0.64483 z m 33.20237,-9.85331 0.0857,-10.61834 9.5086,10.24646 9.50861,10.24646 2.68259,0.21989 c 1.47543,0.12095 3.45064,0.30844 4.38936,0.41665 l 1.70677,0.19674 v -18.25028 -18.25028 h -4.70774 c -4.62137,0 -4.71045,0.0134 -4.85619,0.73147 -0.0816,0.40231 -0.37891,4.9637 -0.66058,10.13643 -0.28166,5.17272 -0.55204,9.44488 -0.60084,9.49367 -0.0488,0.0488 -1.27498,-1.55013 -2.72485,-3.55317 -3.42079,-4.72593 -6.29996,-8.17721 -9.70632,-11.63501 -4.05479,-4.11601 -7.37943,-5.52812 -10.34703,-4.39478 -1.73743,0.66353 -2.61739,1.57123 -3.35125,3.45693 -0.50246,1.29107 -0.57895,3.17205 -0.68383,16.8146 l -0.11809,15.36091 h 4.89468 4.89468 z m 131.7619,10.26365 c 5.73926,-1.06096 7.51514,-4.24247 8.27132,-14.81822 0.17956,-2.51144 0.2291,-8.1902 0.11226,-12.86684 l -0.20917,-8.37129 h -4.8243 -4.8243 v 13.97924 13.97924 h -9.10276 -9.10276 v -13.97924 -13.97924 h -4.87648 -4.87648 v 13.22114 c 0,14.05595 0.18496,16.40676 1.49616,19.01636 1.06579,2.12116 2.72379,3.21534 5.81856,3.83988 2.00494,0.40461 19.90754,0.38759 22.11795,-0.021 z m 64.19573,-3.87159 v -4.22628 H 386.86734 372.8881 v -13.97924 -13.97924 h -4.87648 -4.87648 v 18.20552 18.20553 h 18.85572 18.85572 z m 30.55927,-9.10276 v -13.32904 h 6.66452 6.66452 v -4.87648 -4.87648 h -18.04297 -18.04298 v 4.87648 4.87648 h 6.66453 6.66452 v 13.32904 13.32905 h 4.71393 4.71393 z m 39.98712,-4.87648 c 0,-14.33309 -0.0863,-18.20552 -0.40575,-18.20552 -0.33189,0 -7.39148,2.23743 -7.63033,2.41833 -0.0392,0.0296 -0.36833,2.16352 -0.73147,4.74195 -0.56928,4.04183 -0.6603,6.38097 -0.6603,16.96941 v 12.28136 h 4.71393 4.71392 z m 26.73498,7.542 0.0857,-10.66354 9.34262,9.94715 9.34258,9.94715 4.31156,0.72429 c 2.37133,0.39836 4.42124,0.72073 4.55535,0.71638 0.1341,-0.004 0.24382,-8.20039 0.24382,-18.21343 v -18.20552 h -4.01698 -4.01699 l -0.196,2.51952 c -0.10777,1.38573 -0.3697,6.03057 -0.58202,10.32188 -0.21236,4.2913 -0.47881,7.98282 -0.59217,8.20337 -0.12529,0.24379 -0.99194,-0.71216 -2.21051,-2.43824 -5.60788,-7.94357 -12.59051,-15.59395 -15.62134,-17.11522 -1.64156,-0.82394 -4.9125,-1.45889 -7.63082,-1.48127 l -1.21911,-0.01 v 18.20552 18.20553 h 4.05934 4.05934 z M 386.28242,340.66328 c 3.65541,-0.77479 5.46088,-2.42873 5.45701,-4.99897 -0.003,-1.62335 -1.04123,-3.84209 -3.27238,-6.98962 -1.58892,-2.24154 -19.32929,-23.64013 -28.83872,-34.78555 -7.33494,-8.59683 -8.76713,-10.78178 -8.38887,-12.79799 0.29031,-1.54753 2.69897,-5.09668 6.43149,-9.47675 1.67348,-1.96383 7.93422,-9.42238 13.91272,-16.57455 5.97853,-7.15216 12.1387,-14.48646 13.68929,-16.29843 5.10466,-5.96516 6.70369,-8.88156 6.39095,-11.6562 -0.46805,-4.15256 -4.52931,-5.63486 -14.38698,-5.25101 -10.13196,0.39453 -12.1015,1.40874 -18.64389,9.60062 -4.05836,5.0816 -27.23221,32.44172 -29.41797,34.73226 -0.7213,0.75584 -1.90599,1.65181 -2.63268,1.99102 -3.51381,1.64025 -10.24668,2.27955 -19.44548,1.84638 l -5.12031,-0.24111 -0.002,-21.0159 c -10e-4,-14.25251 -0.11663,-21.4295 -0.3586,-22.30105 -0.50974,-1.83602 -2.08456,-3.26463 -4.37615,-3.96985 -1.53533,-0.47249 -3.02036,-0.59332 -7.29208,-0.59332 -5.94848,0 -8.23958,0.45004 -10.05109,1.97432 -2.00489,1.68701 -1.90642,-1.10474 -1.99555,56.57359 -0.0758,49.03997 -0.0428,52.79379 0.48391,54.99757 1.18496,4.95779 2.05873,5.2746 14.54776,5.2746 h 9.04375 v -23.86557 -23.86556 l 2.81093,-0.23415 c 3.53898,-0.2948 15.66923,0.033 17.83283,0.4819 4.09,0.84858 3.20697,-0.005 18.63511,18.00709 7.83683,9.14919 15.31705,18.02469 16.62275,19.72333 5.64485,7.34363 8.42376,9.16018 14.89221,9.73495 4.42164,0.39289 11.56951,0.3812 13.47199,-0.022 z m -196.09974,-0.87786 c 6.87875,-1.82663 11.6825,-5.47353 14.25018,-10.81841 2.62246,-5.45892 3.0235,-8.66093 3.09035,-24.67472 0.0489,-11.72669 0.008,-12.71113 -0.64465,-15.60473 -1.85611,-8.22574 -5.21019,-12.81741 -11.65213,-15.95156 -5.98333,-2.91103 -2.67109,-2.7002 -44.2994,-2.81965 l -36.81742,-0.10565 v -11.85553 -11.85553 h 34.46045 34.46045 v 4.71393 4.71393 h 12.1912 12.1912 l -0.004,-6.0956 c -0.003,-4.6984 -0.14518,-6.7784 -0.61903,-9.07449 -1.60572,-7.78068 -7.1441,-13.86632 -15.01347,-16.497 -5.96734,-1.99484 -5.66174,-1.98061 -42.55589,-1.98061 -30.81966,0 -33.95805,0.0492 -37.34007,0.58528 -4.82986,0.76559 -8.08845,1.82546 -11.16491,3.63145 -4.445359,2.60959 -7.479793,6.18375 -9.123355,10.74611 -1.487398,4.12886 -1.678198,6.45775 -1.690623,20.63545 -0.01255,14.32615 0.174981,16.39478 1.971446,21.74636 2.639775,7.86375 8.571652,12.32059 17.753942,13.33919 2.06036,0.22856 15.35689,0.3502 38.28036,0.3502 h 35.12346 v 12.5163 12.51629 H 148.61516 114.1998 l -0.16598,-2.911 c -0.23807,-4.17536 -1.0766,-5.77761 -3.53238,-6.74962 -2.6814,-1.06131 -8.30311,-1.51729 -15.176284,-1.23095 l -5.696999,0.23734 0.191603,6.22114 c 0.270148,8.77133 1.154582,12.64106 3.838023,16.79287 3.399696,5.26 8.654277,8.71551 15.087697,9.92196 1.81041,0.33951 10.08576,0.41289 40.47478,0.35891 l 38.19908,-0.0679 z m 280.04215,0.27037 c 5.16865,-0.35553 9.46697,-0.71583 9.55179,-0.80067 0.0849,-0.0848 0.64711,-2.59931 1.24945,-5.58769 l 1.09516,-5.43343 v -13.1087 -13.1087 h 34.46045 34.46045 v 14.1695 14.16949 l 1.1856,4.4424 c 0.65209,2.44332 1.21431,4.48042 1.24942,4.52689 0.0958,0.12678 18.61938,1.37724 20.41122,1.37789 l 1.55228,6.5e-4 -0.0916,-49.33371 -0.0916,-49.33372 -0.72657,-2.56117 c -2.10517,-7.42101 -6.40515,-12.34173 -13.03421,-14.9158 -3.55931,-1.38209 -7.63516,-2.17171 -13.00609,-2.51969 -6.32531,-0.40982 -60.56499,-0.40204 -65.53149,0.009 -5.15762,0.42728 -8.83439,1.3384 -12.37884,3.06755 -7.5841,3.6999 -11.47667,10.2833 -12.50297,21.146 -0.21508,2.27639 -0.33797,20.0882 -0.33817,49.00862 l -2.6e-4,45.43245 1.54422,-6.5e-4 c 0.84932,-3.1e-4 5.7731,-0.29145 10.94178,-0.64699 z"
     id="path937"
     transform="scale(0.75000046)" />
  <path
     style="fill:#008b8b;stroke-width:0.325099"
     d="m 482.12123,262.67967 v -16.58003 h 34.46045 34.46045 v 16.58003 16.58003 h -34.46045 -34.46045 z"
     id="path939"
     transform="scale(0.75000046)" />
  <path
     style="fill:#008b8b;stroke-width:0.325099"
     d="m 148.89516,369.96221 v -9.10276 h 9.10276 9.10276 v 9.10276 9.10276 h -9.10276 -9.10276 z"
     id="path941"
     transform="scale(0.75000046)" />
  <path
     style="fill:#ffffff;stroke-width:0.325099"
     d="m 109.77271,338.74242 c -0.86546,-0.1481 -2.54784,-0.5674 -3.73863,-0.93179 -6.775635,-2.07336 -12.362207,-8.39575 -13.837824,-15.66042 -0.274908,-1.35341 -0.599185,-4.88473 -0.720616,-7.84739 l -0.220784,-5.38666 4.681581,-0.22933 c 6.053993,-0.29656 11.911583,0.21676 13.946893,1.22219 1.96906,0.97272 2.362,1.92761 2.53874,6.1695 l 0.14568,3.49622 36.1254,-0.0827 36.12541,-0.0827 0.0847,-14.04665 0.0847,-14.04666 -37.9587,-0.10993 -37.95871,-0.10994 -2.73015,-0.72324 c -9.124641,-2.41719 -13.435849,-8.44878 -14.648725,-20.49429 -0.416723,-4.13863 -0.427676,-17.03394 -0.02006,-23.61648 0.494506,-7.98568 2.032189,-11.96989 6.08903,-15.77698 3.774865,-3.54246 7.678645,-5.29329 14.235795,-6.3847 3.30219,-0.54963 6.11585,-0.59522 36.73614,-0.59522 25.58392,0 33.7914,0.0966 35.9234,0.42285 8.34904,1.27757 13.63307,4.10843 17.23058,9.23111 2.94908,4.19934 3.90083,8.0378 3.90083,15.73233 v 5.01043 h -10.39423 -10.39423 l -0.0902,-4.63266 -0.0902,-4.63265 -36.16722,-0.0827 -36.16722,-0.0827 v 13.49301 13.493 h 35.89987 c 23.92123,0 36.74179,0.1171 38.42311,0.35095 9.79668,1.3626 16.27568,7.35608 18.42235,17.04183 0.6795,3.06592 0.71745,3.94044 0.66661,15.36263 -0.0709,15.92266 -0.52235,19.28075 -3.31043,24.62352 -2.342,4.48794 -6.63764,7.60197 -12.89059,9.34477 l -2.60079,0.72488 -37.87399,0.0529 c -20.83069,0.0291 -38.58209,-0.0683 -39.44755,-0.21638 z"
     id="path1014"
     transform="scale(0.75000046)" />
  <path
     style="fill:#ffffff;stroke-width:0.325099"
     d="m 373.20505,339.0716 c -3.60921,-0.3185 -6.14852,-1.17875 -8.27714,-2.80407 -0.83688,-0.63901 -3.22275,-3.3037 -5.30195,-5.92155 -2.0792,-2.61785 -9.98107,-12.0013 -17.55971,-20.85211 -14.90228,-17.40381 -14.27884,-16.80634 -18.53249,-17.76035 -2.6805,-0.60119 -13.31201,-0.94671 -19.01263,-0.61791 l -4.13002,0.23821 v 23.8814 23.8814 l -8.69639,-0.10066 c -10.92355,-0.12645 -10.75429,-0.0598 -11.82271,-4.65205 -0.49503,-2.12771 -0.41795,-105.32795 0.0801,-107.23742 0.73924,-2.83415 2.96826,-3.62424 10.19839,-3.61489 5.19757,0.007 7.99593,0.53312 8.99951,1.6929 1.19146,1.37691 1.2411,2.35627 1.2411,24.48449 v 21.69785 l 6.0956,0.24192 c 10.99307,0.43631 17.08577,-0.17448 21.05809,-2.11105 1.85714,-0.90538 2.65668,-1.77471 15.44218,-16.79011 7.416,-8.70942 14.70215,-17.38443 16.19144,-19.27782 6.78819,-8.63004 8.58089,-9.61197 18.26106,-10.00233 7.01344,-0.28282 10.6157,0.47376 12.1303,2.54773 1.45975,1.99886 -0.23083,5.41789 -6.00251,12.13955 -5.92281,6.89765 -28.09414,33.42322 -30.24349,36.18303 -4.54787,5.83954 -4.82795,7.74448 -1.79283,12.19409 0.99918,1.46485 3.69466,4.85777 5.98995,7.53984 8.94751,10.45526 27.89542,33.27626 29.42172,35.43574 4.06043,5.7449 4.14306,7.93964 0.34811,9.2463 -1.5165,0.52216 -9.75739,0.71983 -14.08568,0.33787 z"
     id="path1016"
     transform="scale(0.75000046)" />
  <path
     style="fill:#ffffff;stroke-width:0.325099"
     d="m 459.45639,292.18237 c 0.12897,-51.75288 0.0284,-49.22762 2.18301,-54.80251 2.93261,-7.58786 8.95361,-11.9563 18.53124,-13.44504 3.94949,-0.6139 67.75616,-0.62486 71.91834,-0.0123 11.93976,1.75707 18.05856,6.41898 20.7872,15.83774 l 0.75346,2.60079 0.0929,48.35842 0.0929,48.35841 -0.73968,-0.0151 c -2.01542,-0.0412 -18.16095,-1.2082 -18.25416,-1.31947 -0.0591,-0.0706 -0.56799,-1.85417 -1.13076,-3.96347 l -1.02322,-3.83511 v -14.7768 -14.7768 h -36.08595 -36.08594 v 13.76597 13.76597 l -0.97618,4.81971 c -0.5369,2.65084 -1.04443,4.88797 -1.12786,4.9714 -0.13775,0.13775 -16.00082,1.31803 -18.14576,1.35012 l -0.90642,0.0136 z m 93.21124,-29.5027 v -18.20552 h -36.08595 -36.08594 v 18.20552 18.20552 h 36.08594 36.08595 z"
     id="path1018"
     transform="scale(0.75000046)" />
  <path
     style="fill:#ffffff;stroke-width:0.325099"
     d="m 558.03175,385.90789 c -6.10161,-0.26932 -7.28501,-0.57691 -8.70301,-2.26211 -1.57575,-1.87268 -1.70014,-2.92139 -1.70014,-14.33377 0,-11.51362 0.0826,-12.14975 1.83761,-14.14858 1.83394,-2.08873 3.00455,-2.2689 14.74242,-2.2689 h 10.40315 l 1.85326,0.91008 c 1.5856,0.77863 1.97112,1.15427 2.66927,2.60079 0.83804,1.73637 1.47471,5.10455 0.96476,5.10386 -0.15714,-2.2e-4 -2.65997,-0.51225 -5.56185,-1.13785 -5.25238,-1.13233 -5.31348,-1.13745 -13.57286,-1.13745 h -8.29673 v 10.72825 10.72825 h 11.37845 11.37845 v -3.41353 -3.41354 h -3.90119 -3.90118 v -3.25098 -3.25099 h 6.50197 6.50198 v 4.47864 c 0,5.3828 -0.48584,9.64034 -1.24975,10.95204 -0.30872,0.53009 -1.01604,1.22937 -1.57183,1.55397 -2.47343,1.44457 -9.62717,2.00962 -19.77278,1.56182 z"
     id="path1020"
     transform="scale(0.75000046)" />
  <path
     style="fill:#ffffff;stroke-width:0.325099"
     d="M 491.54909,369.30917 V 352.7263 l 1.86932,0.1942 c 2.9618,0.30768 4.69974,1.00737 6.69713,2.69623 4.09135,3.45936 12.61396,13.94277 15.56064,19.14068 0.94685,1.67023 1.33515,1.9406 2.09375,1.45786 0.24966,-0.15887 0.5496,-3.45301 0.895,-9.82925 0.28572,-5.27467 0.60384,-10.50464 0.70694,-11.62217 l 0.18745,-2.03187 h 2.41236 2.41237 v 16.41748 c 0,12.49479 -0.0926,16.41748 -0.38767,16.41748 -0.21322,0 -1.71274,-0.24219 -3.33226,-0.53821 l -2.94459,-0.53822 -10.40316,-11.13867 c -5.72173,-6.12627 -10.51288,-11.15067 -10.64698,-11.16534 -0.1341,-0.0147 -0.24382,5.31309 -0.24382,11.83944 v 11.8661 h -2.43824 -2.43824 z"
     id="path1022"
     transform="scale(0.75000046)" />
  <path
     style="fill:#ffffff;stroke-width:0.325099"
     d="m 463.60438,374.43232 c 0.0109,-9.094 0.13128,-12.29864 0.58299,-15.52346 l 0.56922,-4.06373 1.93652,-0.71215 c 3.41969,-1.25757 3.07437,-2.999 3.07437,15.50413 v 16.25493 h -3.08843 -3.08844 z"
     id="path1024"
     transform="scale(0.75000046)" />
  <path
     style="fill:#ffffff;stroke-width:0.325099"
     d="m 423.60348,372.563 v -13.32904 h -6.66452 -6.66452 v -3.25099 -3.25099 h 16.41748 16.41748 v 3.25099 3.25099 h -6.66453 -6.66452 v 13.32904 13.32904 h -3.08843 -3.08844 z"
     id="path1026"
     transform="scale(0.75000046)" />
  <path
     style="fill:#ffffff;stroke-width:0.325099"
     d="m 364.76063,369.31201 v -16.58003 h 3.25099 3.25098 v 13.97924 13.97924 h 13.97924 13.97924 v 2.60079 2.60079 h -17.23022 -17.23023 z"
     id="path1028"
     transform="scale(0.75000046)" />
  <path
     style="fill:#ffffff;stroke-width:0.325099"
     d="m 314.79185,385.56282 c -2.74058,-0.56536 -4.40656,-1.96344 -5.20928,-4.37158 -0.4676,-1.40279 -0.5629,-3.56862 -0.66219,-15.04894 l -0.11598,-13.41032 h 3.10807 3.10808 v 13.97924 13.97924 h 10.8908 10.8908 v -13.97924 -13.97924 h 3.20321 3.2032 l 0.17933,7.0709 c 0.31021,12.23096 -0.49945,19.99118 -2.40796,23.07921 -0.47308,0.76545 -1.30719,1.42501 -2.52349,1.99539 l -1.81684,0.85201 -10.2406,0.0576 c -5.63234,0.0317 -10.85555,-0.0692 -11.60715,-0.22429 z"
     id="path1030"
     transform="scale(0.75000046)" />
  <path
     style="fill:#ffffff;stroke-width:0.325099"
     d="m 260.72908,385.77227 c -2.50956,-0.60356 -3.3321,-0.98626 -4.69869,-2.18615 -1.18702,-1.04221 -2.77858,-3.71883 -2.77858,-4.67289 0,-0.27415 0.0366,-0.49792 0.0813,-0.49726 0.0447,6.5e-4 2.64142,0.51011 5.7705,1.1321 5.56309,1.10583 5.86761,1.13103 13.73541,1.13665 l 8.04619,0.006 v -4.06373 -4.06373 l -8.53384,-0.007 c -13.67327,-0.0105 -16.22037,-0.6644 -18.28085,-4.69335 -0.90035,-1.76049 -0.98104,-2.18855 -0.97887,-5.19263 0.002,-2.74042 0.12752,-3.55168 0.77034,-4.97802 0.90356,-2.00493 2.74594,-3.7844 4.48713,-4.33394 0.77309,-0.24399 4.39935,-0.44835 9.60318,-0.54117 13.49688,-0.24076 16.48889,0.49319 18.12637,4.4464 0.54668,1.31982 0.23395,2.34681 -0.92268,3.03005 -1.25424,0.7409 -3.09389,0.7097 -6.87157,-0.11654 -2.48444,-0.54339 -4.66198,-0.70879 -11.13462,-0.84575 l -8.04619,-0.17025 v 3.41918 3.41918 l 10.32188,0.1409 c 11.50852,0.15709 12.82544,0.36094 14.74734,2.28284 3.19297,3.19297 4.04222,10.3641 1.67808,14.16981 -1.73664,2.79559 -3.42017,3.17558 -15.2063,3.43218 -6.13715,0.13361 -8.56534,0.0716 -9.91551,-0.25308 z"
     id="path1032"
     transform="scale(0.75000046)" />
  <path
     style="fill:#ffffff;stroke-width:0.325099"
     d="m 196.73956,371.50643 c 0.10654,-14.23749 0.11532,-14.4012 0.85349,-15.89961 1.93266,-3.92315 6.0019,-3.12816 11.08397,2.16544 4.58162,4.77232 10.6833,12.81723 13.56051,17.87918 l 0.92393,1.62549 0.21838,-1.78804 c 0.1201,-0.98343 0.47966,-6.50604 0.79901,-12.27248 l 0.58064,-10.48443 h 3.19281 3.19281 v 16.51064 16.51064 l -3.18428,-0.33698 -3.18428,-0.33698 -10.71369,-11.51239 -10.71368,-11.51238 -0.0853,11.91876 -0.0853,11.91875 h -3.27336 -3.27335 z"
     id="path1034"
     transform="scale(0.75000046)" />
  <path
     style="fill:#ffffff;stroke-width:0.325099"
     d="m 147.65102,385.40604 c -2.98179,-0.66491 -3.97867,-1.34672 -4.99826,-3.41855 -1.25194,-2.54397 -1.90993,-6.25182 -2.10514,-11.86273 -0.21096,-6.0631 0.37061,-10.44016 1.74395,-13.1255 0.78386,-1.53272 1.20538,-1.95432 2.70937,-2.70985 2.31597,-1.16344 5.96473,-1.61458 13.32208,-1.64718 8.16728,-0.0362 13.01001,0.95718 14.75056,3.0257 2.88328,3.42658 3.11686,23.62719 0.32257,27.89756 -0.27419,0.41903 -1.18109,1.07736 -2.01533,1.46294 -1.43867,0.66495 -2.03591,0.70454 -11.59486,0.76867 -7.6914,0.0516 -10.56516,-0.041 -12.13494,-0.39106 z m 21.07516,-15.44383 v -10.72825 h -10.72826 -10.72825 v 10.72825 10.72825 h 10.72825 10.72826 z"
     id="path1036"
     transform="scale(0.75000046)" />
  <path
     style="fill:#ffffff;stroke-width:0.325099"
     d="m 93.14075,385.66527 c -2.478707,-0.32876 -4.344008,-1.09928 -5.301721,-2.19006 -1.587079,-1.80758 -1.759354,-3.36762 -1.63585,-14.81339 0.103797,-9.61938 0.152195,-10.32936 0.797812,-11.70355 0.85553,-1.821 1.843134,-2.74365 3.710776,-3.46672 1.27461,-0.49348 3.125705,-0.57801 15.026553,-0.68617 l 13.57287,-0.12337 v 3.27597 3.27598 H 105.1694 91.027609 v 10.72825 10.72825 h 14.141791 14.14179 v 2.60079 2.60079 l -12.59757,-0.0487 c -6.928667,-0.0268 -13.036457,-0.10692 -13.57287,-0.17806 z"
     id="path1038"
     transform="scale(0.75000046)" />
</svg>
